<mxfile host="app.diagrams.net" agent="Mozilla/5.0 (Windows NT 10.0; Win64; x64) AppleWebKit/537.36 (KHTML, like Gecko) Chrome/139.0.0.0 Safari/537.36" version="28.2.1">
  <diagram name="Page-1" id="a6j_DdvMEbxUjIsGoNej">
    <mxGraphModel grid="1" page="1" gridSize="10" guides="1" tooltips="1" connect="1" arrows="1" fold="1" pageScale="1" pageWidth="827" pageHeight="1169" math="0" shadow="0">
      <root>
        <mxCell id="0" />
        <mxCell id="1" parent="0" />
        <mxCell id="jniATtF-rEmz9X5AHEv4-1" value="Utilisateur" style="shape=umlActor;verticalLabelPosition=bottom;verticalAlign=top;html=1;" vertex="1" parent="1">
          <mxGeometry x="60" y="90" width="30" height="60" as="geometry" />
        </mxCell>
        <mxCell id="jniATtF-rEmz9X5AHEv4-2" value="Client" style="shape=umlActor;verticalLabelPosition=bottom;verticalAlign=top;html=1;" vertex="1" parent="1">
          <mxGeometry x="200" y="250" width="30" height="60" as="geometry" />
        </mxCell>
        <mxCell id="jniATtF-rEmz9X5AHEv4-5" value="" style="swimlane;startSize=0;" vertex="1" parent="1">
          <mxGeometry x="280" y="40" width="460" height="770" as="geometry" />
        </mxCell>
        <mxCell id="jniATtF-rEmz9X5AHEv4-12" value="&lt;font style=&quot;font-size: 14px;&quot;&gt;Se connecter&lt;/font&gt;" style="ellipse;whiteSpace=wrap;html=1;" vertex="1" parent="jniATtF-rEmz9X5AHEv4-5">
          <mxGeometry x="30" y="70" width="110" height="60" as="geometry" />
        </mxCell>
        <mxCell id="jniATtF-rEmz9X5AHEv4-13" value="&lt;span style=&quot;font-size: 14px;&quot;&gt;Créer des évènements&lt;/span&gt;" style="ellipse;whiteSpace=wrap;html=1;" vertex="1" parent="jniATtF-rEmz9X5AHEv4-5">
          <mxGeometry x="170" y="490" width="110" height="60" as="geometry" />
        </mxCell>
        <mxCell id="jniATtF-rEmz9X5AHEv4-14" value="&lt;font style=&quot;font-size: 14px;&quot;&gt;Consulter les évènements&lt;/font&gt;" style="ellipse;whiteSpace=wrap;html=1;" vertex="1" parent="jniATtF-rEmz9X5AHEv4-5">
          <mxGeometry x="30" y="130" width="110" height="60" as="geometry" />
        </mxCell>
        <mxCell id="jniATtF-rEmz9X5AHEv4-27" value="&lt;span style=&quot;font-size: 14px;&quot;&gt;Créer un compte&lt;/span&gt;" style="ellipse;whiteSpace=wrap;html=1;" vertex="1" parent="jniATtF-rEmz9X5AHEv4-5">
          <mxGeometry x="30" y="10" width="110" height="60" as="geometry" />
        </mxCell>
        <mxCell id="jniATtF-rEmz9X5AHEv4-29" value="&lt;span style=&quot;font-size: 14px;&quot;&gt;Modifier un évènement&lt;/span&gt;" style="ellipse;whiteSpace=wrap;html=1;" vertex="1" parent="jniATtF-rEmz9X5AHEv4-5">
          <mxGeometry x="170" y="340" width="110" height="60" as="geometry" />
        </mxCell>
        <mxCell id="jniATtF-rEmz9X5AHEv4-30" value="&lt;span style=&quot;font-size: 14px;&quot;&gt;Annuler un évènement&lt;/span&gt;" style="ellipse;whiteSpace=wrap;html=1;" vertex="1" parent="jniATtF-rEmz9X5AHEv4-5">
          <mxGeometry x="170" y="420" width="110" height="60" as="geometry" />
        </mxCell>
        <mxCell id="jniATtF-rEmz9X5AHEv4-31" value="&lt;span style=&quot;font-size: 14px;&quot;&gt;Gérer les réservations&lt;/span&gt;" style="ellipse;whiteSpace=wrap;html=1;" vertex="1" parent="jniATtF-rEmz9X5AHEv4-5">
          <mxGeometry x="30" y="630" width="110" height="60" as="geometry" />
        </mxCell>
        <mxCell id="jniATtF-rEmz9X5AHEv4-33" style="edgeStyle=orthogonalEdgeStyle;rounded=0;orthogonalLoop=1;jettySize=auto;html=1;exitX=0.5;exitY=1;exitDx=0;exitDy=0;" edge="1" parent="jniATtF-rEmz9X5AHEv4-5">
          <mxGeometry relative="1" as="geometry">
            <mxPoint x="225" y="580" as="sourcePoint" />
            <mxPoint x="225" y="580" as="targetPoint" />
          </mxGeometry>
        </mxCell>
        <mxCell id="jniATtF-rEmz9X5AHEv4-34" value="&lt;font style=&quot;font-size: 13px;&quot;&gt;Réserver une place pour un évènement&lt;/font&gt;" style="ellipse;whiteSpace=wrap;html=1;" vertex="1" parent="jniATtF-rEmz9X5AHEv4-5">
          <mxGeometry x="30" y="210" width="110" height="60" as="geometry" />
        </mxCell>
        <mxCell id="jniATtF-rEmz9X5AHEv4-36" value="&lt;span style=&quot;font-size: 14px;&quot;&gt;Modifier sa réservation&lt;/span&gt;" style="ellipse;whiteSpace=wrap;html=1;" vertex="1" parent="jniATtF-rEmz9X5AHEv4-5">
          <mxGeometry x="170" y="250" width="110" height="60" as="geometry" />
        </mxCell>
        <mxCell id="jniATtF-rEmz9X5AHEv4-35" value="&lt;span style=&quot;font-size: 14px;&quot;&gt;Annuler sa réservation&lt;/span&gt;" style="ellipse;whiteSpace=wrap;html=1;" vertex="1" parent="jniATtF-rEmz9X5AHEv4-5">
          <mxGeometry x="170" y="170" width="110" height="60" as="geometry" />
        </mxCell>
        <mxCell id="jniATtF-rEmz9X5AHEv4-41" value="" style="endArrow=none;html=1;rounded=0;entryX=0.02;entryY=0.687;entryDx=0;entryDy=0;entryPerimeter=0;exitX=0;exitY=0.5;exitDx=0;exitDy=0;" edge="1" parent="jniATtF-rEmz9X5AHEv4-5" source="jniATtF-rEmz9X5AHEv4-12" target="jniATtF-rEmz9X5AHEv4-27">
          <mxGeometry width="50" height="50" relative="1" as="geometry">
            <mxPoint x="80" y="240" as="sourcePoint" />
            <mxPoint x="130" y="190" as="targetPoint" />
            <Array as="points">
              <mxPoint x="-180" y="100" />
            </Array>
          </mxGeometry>
        </mxCell>
        <mxCell id="jniATtF-rEmz9X5AHEv4-43" value="" style="endArrow=none;html=1;rounded=0;entryX=0;entryY=0.5;entryDx=0;entryDy=0;" edge="1" parent="jniATtF-rEmz9X5AHEv4-5" target="jniATtF-rEmz9X5AHEv4-34">
          <mxGeometry width="50" height="50" relative="1" as="geometry">
            <mxPoint x="-40" y="240" as="sourcePoint" />
            <mxPoint x="30" y="280" as="targetPoint" />
            <Array as="points" />
          </mxGeometry>
        </mxCell>
        <mxCell id="jniATtF-rEmz9X5AHEv4-46" value="" style="endArrow=block;dashed=1;endFill=0;endSize=12;html=1;rounded=0;exitX=0;exitY=0.5;exitDx=0;exitDy=0;entryX=1;entryY=0;entryDx=0;entryDy=0;" edge="1" parent="jniATtF-rEmz9X5AHEv4-5" source="jniATtF-rEmz9X5AHEv4-35" target="jniATtF-rEmz9X5AHEv4-34">
          <mxGeometry width="160" relative="1" as="geometry">
            <mxPoint x="-10" y="420" as="sourcePoint" />
            <mxPoint x="150" y="420" as="targetPoint" />
          </mxGeometry>
        </mxCell>
        <mxCell id="jniATtF-rEmz9X5AHEv4-47" value="" style="endArrow=block;dashed=1;endFill=0;endSize=12;html=1;rounded=0;entryX=1;entryY=1;entryDx=0;entryDy=0;exitX=0;exitY=0.5;exitDx=0;exitDy=0;" edge="1" parent="jniATtF-rEmz9X5AHEv4-5" source="jniATtF-rEmz9X5AHEv4-36" target="jniATtF-rEmz9X5AHEv4-34">
          <mxGeometry width="160" relative="1" as="geometry">
            <mxPoint x="-10" y="420" as="sourcePoint" />
            <mxPoint x="150" y="420" as="targetPoint" />
          </mxGeometry>
        </mxCell>
        <mxCell id="jniATtF-rEmz9X5AHEv4-52" value="&lt;span style=&quot;font-size: 14px;&quot;&gt;Gérer les évènements&lt;/span&gt;" style="ellipse;whiteSpace=wrap;html=1;" vertex="1" parent="jniATtF-rEmz9X5AHEv4-5">
          <mxGeometry x="10" y="430" width="110" height="60" as="geometry" />
        </mxCell>
        <mxCell id="jniATtF-rEmz9X5AHEv4-58" value="" style="endArrow=block;dashed=1;endFill=0;endSize=12;html=1;rounded=0;exitX=0;exitY=0.5;exitDx=0;exitDy=0;entryX=1;entryY=0;entryDx=0;entryDy=0;" edge="1" parent="jniATtF-rEmz9X5AHEv4-5" source="jniATtF-rEmz9X5AHEv4-29" target="jniATtF-rEmz9X5AHEv4-52">
          <mxGeometry width="160" relative="1" as="geometry">
            <mxPoint x="-20" y="430" as="sourcePoint" />
            <mxPoint x="140" y="430" as="targetPoint" />
          </mxGeometry>
        </mxCell>
        <mxCell id="jniATtF-rEmz9X5AHEv4-59" value="" style="endArrow=block;dashed=1;endFill=0;endSize=12;html=1;rounded=0;exitX=0;exitY=0.5;exitDx=0;exitDy=0;entryX=1;entryY=0.5;entryDx=0;entryDy=0;" edge="1" parent="jniATtF-rEmz9X5AHEv4-5" source="jniATtF-rEmz9X5AHEv4-30" target="jniATtF-rEmz9X5AHEv4-52">
          <mxGeometry width="160" relative="1" as="geometry">
            <mxPoint x="-20" y="430" as="sourcePoint" />
            <mxPoint x="140" y="430" as="targetPoint" />
          </mxGeometry>
        </mxCell>
        <mxCell id="jniATtF-rEmz9X5AHEv4-60" value="" style="endArrow=block;dashed=1;endFill=0;endSize=12;html=1;rounded=0;exitX=0;exitY=0.5;exitDx=0;exitDy=0;entryX=1;entryY=1;entryDx=0;entryDy=0;" edge="1" parent="jniATtF-rEmz9X5AHEv4-5" source="jniATtF-rEmz9X5AHEv4-13" target="jniATtF-rEmz9X5AHEv4-52">
          <mxGeometry width="160" relative="1" as="geometry">
            <mxPoint x="-20" y="430" as="sourcePoint" />
            <mxPoint x="140" y="430" as="targetPoint" />
            <Array as="points" />
          </mxGeometry>
        </mxCell>
        <mxCell id="jniATtF-rEmz9X5AHEv4-62" value="&lt;span style=&quot;font-size: 14px;&quot;&gt;Obtenir la liste des participants&lt;/span&gt;" style="ellipse;whiteSpace=wrap;html=1;" vertex="1" parent="jniATtF-rEmz9X5AHEv4-5">
          <mxGeometry x="200" y="600" width="110" height="60" as="geometry" />
        </mxCell>
        <mxCell id="jniATtF-rEmz9X5AHEv4-63" value="&lt;span style=&quot;font-size: 14px;&quot;&gt;Supprimer une réservation&lt;/span&gt;" style="ellipse;whiteSpace=wrap;html=1;" vertex="1" parent="jniATtF-rEmz9X5AHEv4-5">
          <mxGeometry x="200" y="690" width="110" height="60" as="geometry" />
        </mxCell>
        <mxCell id="jniATtF-rEmz9X5AHEv4-64" value="" style="endArrow=block;dashed=1;endFill=0;endSize=12;html=1;rounded=0;entryX=1;entryY=0;entryDx=0;entryDy=0;exitX=0;exitY=0.5;exitDx=0;exitDy=0;" edge="1" parent="jniATtF-rEmz9X5AHEv4-5" source="jniATtF-rEmz9X5AHEv4-62" target="jniATtF-rEmz9X5AHEv4-31">
          <mxGeometry width="160" relative="1" as="geometry">
            <mxPoint x="-10" y="730" as="sourcePoint" />
            <mxPoint x="150" y="730" as="targetPoint" />
          </mxGeometry>
        </mxCell>
        <mxCell id="jniATtF-rEmz9X5AHEv4-65" value="" style="endArrow=block;dashed=1;endFill=0;endSize=12;html=1;rounded=0;exitX=0;exitY=0.5;exitDx=0;exitDy=0;entryX=1;entryY=1;entryDx=0;entryDy=0;" edge="1" parent="jniATtF-rEmz9X5AHEv4-5" source="jniATtF-rEmz9X5AHEv4-63" target="jniATtF-rEmz9X5AHEv4-31">
          <mxGeometry width="160" relative="1" as="geometry">
            <mxPoint x="-10" y="730" as="sourcePoint" />
            <mxPoint x="150" y="730" as="targetPoint" />
          </mxGeometry>
        </mxCell>
        <mxCell id="jniATtF-rEmz9X5AHEv4-6" value="Administrateur" style="shape=umlActor;verticalLabelPosition=bottom;verticalAlign=top;html=1;" vertex="1" parent="1">
          <mxGeometry x="200" y="460" width="30" height="60" as="geometry" />
        </mxCell>
        <mxCell id="jniATtF-rEmz9X5AHEv4-26" value="" style="edgeStyle=segmentEdgeStyle;endArrow=classic;html=1;curved=0;rounded=0;endSize=8;startSize=8;" edge="1" parent="1">
          <mxGeometry width="50" height="50" relative="1" as="geometry">
            <mxPoint x="190" y="500" as="sourcePoint" />
            <mxPoint x="60" y="170" as="targetPoint" />
            <Array as="points">
              <mxPoint x="190" y="500" />
              <mxPoint x="60" y="500" />
            </Array>
          </mxGeometry>
        </mxCell>
        <mxCell id="jniATtF-rEmz9X5AHEv4-45" value="" style="endArrow=none;html=1;rounded=0;entryX=0;entryY=0.5;entryDx=0;entryDy=0;" edge="1" parent="1" target="jniATtF-rEmz9X5AHEv4-14">
          <mxGeometry width="50" height="50" relative="1" as="geometry">
            <mxPoint x="100" y="140" as="sourcePoint" />
            <mxPoint x="370" y="300" as="targetPoint" />
          </mxGeometry>
        </mxCell>
        <mxCell id="jniATtF-rEmz9X5AHEv4-50" value="" style="edgeStyle=segmentEdgeStyle;endArrow=classic;html=1;curved=0;rounded=0;endSize=8;startSize=8;" edge="1" parent="1">
          <mxGeometry width="50" height="50" relative="1" as="geometry">
            <mxPoint x="190" y="280" as="sourcePoint" />
            <mxPoint x="80" y="170" as="targetPoint" />
            <Array as="points">
              <mxPoint x="110" y="280" />
              <mxPoint x="80" y="280" />
            </Array>
          </mxGeometry>
        </mxCell>
        <mxCell id="jniATtF-rEmz9X5AHEv4-57" value="" style="endArrow=none;html=1;rounded=0;entryX=0;entryY=0.5;entryDx=0;entryDy=0;" edge="1" parent="1" target="jniATtF-rEmz9X5AHEv4-52">
          <mxGeometry width="50" height="50" relative="1" as="geometry">
            <mxPoint x="240" y="500" as="sourcePoint" />
            <mxPoint x="290" y="460" as="targetPoint" />
          </mxGeometry>
        </mxCell>
        <mxCell id="jniATtF-rEmz9X5AHEv4-66" value="" style="endArrow=none;html=1;rounded=0;entryX=0;entryY=0.5;entryDx=0;entryDy=0;" edge="1" parent="1" target="jniATtF-rEmz9X5AHEv4-31">
          <mxGeometry width="50" height="50" relative="1" as="geometry">
            <mxPoint x="240" y="500" as="sourcePoint" />
            <mxPoint x="330" y="600" as="targetPoint" />
          </mxGeometry>
        </mxCell>
        <mxCell id="jniATtF-rEmz9X5AHEv4-104" value="" style="endArrow=none;html=1;rounded=0;" edge="1" parent="1">
          <mxGeometry width="50" height="50" relative="1" as="geometry">
            <mxPoint x="220" y="450" as="sourcePoint" />
            <mxPoint x="240" y="280" as="targetPoint" />
          </mxGeometry>
        </mxCell>
      </root>
    </mxGraphModel>
  </diagram>
</mxfile>
